PathFileType	3	(X/Y/Z)	E:\ViconData\BIOM9541 2025\Week 7\Wed1100\Hanif deep squat 7-5 Squat 01.trc
DataRate	CameraRate	NumFrames	NumMarkers	Units	OrigDataRate	OrigDataStartFrame	OrigNumFrames
200.0	200.0	14	19	mm	200.0	921	1840	
Frame#	Time	C7			CLAV			RBAK			LASI			RASI			LPSI			RPSI			LTHI			LKNE			LTIB			LANK			LHEE			LTOE			RTHI			RKNE			RTIB			RANK			RHEE			RTOE			
		X1	Y1	Z1	X2	Y2	Z2	X3	Y3	Z3	X4	Y4	Z4	X5	Y5	Z5	X6	Y6	Z6	X7	Y7	Z7	X8	Y8	Z8	X9	Y9	Z9	X10	Y10	Z10	X11	Y11	Z11	X12	Y12	Z12	X13	Y13	Z13	X14	Y14	Z14	X15	Y15	Z15	X16	Y16	Z16	X17	Y17	Z17	X18	Y18	Z18	X19	Y19	Z19	
921	4.6	322.07291	791.60944	-1234.1216	176.53246	708.53809	-1219.5929	336.02429	711.48822	-1384.5806				273.04785	389.8418	-1360.4248	451.26099	423.07053	-1184.1969	451.00919	417.99704	-1256.42	214.49567	386.02295	-933.81537	103.36419	342.38004	-867.61615	204.15179	174.04988	-926.62091	295.80981	62.06266	-1009.0233	311.10291	55.994396	-1070.0818	158.91925	38.67384	-967.08118	337.91357	385.68784	-1424.8777	89.953033	320.35287	-1565.6036	123.27369	248.63466	-1551.2905	287.95441	69.33522	-1434.7086	314.75806	58.184544	-1362.8718	161.71472	39.688984	-1462.2808
922	4.605	322.21539	791.3595	-1234.2133	176.78337	708.16528	-1219.7661	336.16681	711.15552	-1384.604				273.27325	389.53506	-1360.2886	451.54398	422.7605	-1184.2458	451.20294	417.61942	-1256.3918	214.88164	386.00833	-933.62012	103.75436	342.55771	-867.48639	204.30229	174.09381	-926.53766	295.90421	62.00687	-1009.0319	311.11267	55.960991	-1070.03	158.93709	38.682129	-967.05066	338.14328	385.4599	-1424.8176	90.063011	320.43918	-1565.4949	123.3443	248.69559	-1551.1991	287.97324	69.303093	-1434.6976	314.80679	58.174995	-1362.8137	161.74196	39.713203	-1462.2896
923	4.61	322.30978	791.12964	-1234.2744	176.95569	707.9245	-1219.8817	336.26694	710.91498	-1384.6096				273.45172	389.32126	-1360.1465	451.88602	422.40359	-1184.5146	451.55093	417.51633	-1256.4747	215.39594	385.97498	-933.66638	104.12947	342.69443	-867.43182	204.45316	174.23318	-926.41266	291.59018	64.63858	-999.33618	311.15488	55.895691	-1069.9971	158.99057	38.678528	-967.10864	338.3439	385.22525	-1424.7614	90.20491	320.46295	-1565.3802	123.39311	248.71796	-1551.1227	287.99551	69.22747	-1434.6927	314.74966	58.110138	-1362.7559	161.77426	39.650654	-1462.28
924	4.615	322.40024	790.94873	-1234.2787	177.20265	707.79279	-1220.2327	336.37567	710.66998	-1384.6598				273.68759	389.04395	-1360.0496	452.15598	422.07535	-1184.7124	451.77887	417.23199	-1256.5289	215.90134	386.04913	-933.56293	104.51173	342.9046	-867.33337	204.63142	174.3316	-926.33221	291.66904	64.624992	-999.32684	311.16675	55.814922	-1069.9839	159.03542	38.682919	-967.13959	338.55594	384.98862	-1424.7166	90.303299	320.49594	-1565.2882	123.45716	248.73737	-1551.0444	287.98972	69.167038	-1434.703	314.86871	58.071503	-1362.8658	161.76646	39.622524	-1462.2738
925	4.62	322.45074	790.80096	-1234.2452	177.38152	707.53857	-1220.2238	336.85156	710.60046	-1384.8782				273.90323	388.83948	-1359.9594	452.44992	421.78738	-1184.7496	452.03033	416.86914	-1256.582	216.39673	386.10886	-933.67151	104.89911	343.06824	-867.23358	204.82242	174.38495	-926.28302	291.68976	64.568787	-999.23474	311.18628	55.793041	-1069.9734	159.03035	38.680511	-967.01123	338.75241	384.82822	-1424.6691	90.3834	320.61716	-1565.204	123.48428	248.83694	-1550.9891	287.99084	69.181213	-1434.6761	314.93631	58.087265	-1362.9386	161.73441	39.626202	-1462.2355
926	4.625	322.53268	790.59406	-1234.2867	177.52437	707.34747	-1220.2655	336.56897	710.33197	-1384.7585				274.10394	388.71701	-1359.9174	452.67984	421.51279	-1184.5715	452.26404	416.57471	-1256.5905	216.81151	386.15247	-933.56232	105.27953	343.23987	-867.10175	205.00948	174.39348	-926.2619	291.7511	64.502975	-999.20892	311.26352	55.82674	-1069.9747	159.09567	38.700119	-966.90973	338.92758	384.69373	-1424.6389	90.487	320.7684	-1565.1359	123.53732	248.95532	-1550.8972	287.96848	69.219254	-1434.6672	314.92667	58.079159	-1362.8958	161.73442	39.652428	-1462.1986
927	4.63	322.61438	790.42865	-1234.2924	177.5946	707.11517	-1220.108	336.62427	710.20758	-1384.7938				274.30017	388.65738	-1359.9252	452.92374	421.23523	-1184.4812	452.52115	416.38031	-1256.6222	217.21341	386.27945	-933.27997	105.67392	343.36667	-866.99951	205.17067	174.39792	-926.2171	291.78882	64.395042	-999.1261	311.31039	55.844357	-1069.9847	159.10323	38.688839	-966.83569	339.13214	384.55109	-1424.595	90.604683	320.9187	-1565.0813	123.60168	249.06889	-1550.8451	287.98471	69.240112	-1434.6652	314.35458	57.890095	-1362.1702	161.74261	39.660492	-1462.1581
928	4.635	322.71472	790.25592	-1234.3474	177.77344	706.8476	-1220.2332	336.69101	710.04315	-1384.8318				274.52377	388.52795	-1359.8467	453.24652	420.97037	-1184.6025	452.75378	416.07352	-1256.6349	217.60307	386.22205	-933.17676	105.99097	343.47687	-866.90887	205.3327	174.4929	-926.16687	291.82184	64.366951	-999.07715	311.36749	55.807667	-1069.9696	159.15739	38.682514	-966.75366	339.35574	384.35629	-1424.5646	90.758842	321.01382	-1565.0247	123.72127	249.1503	-1550.8038	288.01154	69.191109	-1434.6653	314.81271	57.881817	-1362.6868	161.7832	39.666862	-1462.1746
929	4.64	322.80817	790.05676	-1234.3848	177.95517	706.66766	-1220.4946	336.77963	709.87012	-1384.8701				274.75931	388.39142	-1359.7975	453.51373	420.72095	-1184.6531	453.01321	415.83282	-1256.6444	218.00865	386.16541	-933.23853	106.32758	343.61157	-866.86707	205.4709	174.54063	-926.09088	291.86948	64.348961	-999.01709	311.45004	55.795315	-1069.9635	159.20546	38.706867	-966.83398	339.56265	384.19849	-1424.5161	90.933365	321.09299	-1564.9481	123.86365	249.19209	-1550.7474	288.06818	69.145561	-1434.6523	314.79904	57.821083	-1362.6409	161.80411	39.618412	-1462.183
930	4.645	322.89072	789.89679	-1234.4139	178.16324	706.40112	-1220.6221	336.82596	709.72827	-1384.873				274.98267	388.2377	-1359.7454	453.79459	420.49744	-1184.7814	453.25662	415.62344	-1256.6577	218.40761	386.18158	-933.20221	106.70856	343.7547	-866.83624	205.66336	174.61264	-926.047	291.93872	64.288506	-998.97614	311.46832	55.760307	-1069.9298	159.2321	38.679798	-966.79614	339.75549	384.02707	-1424.4595	91.086075	321.2157	-1564.8729	123.9498	249.27614	-1550.7031	288.06537	69.112709	-1434.6516	314.88214	57.820393	-1362.813	161.78819	39.658718	-1462.2262
931	4.65	322.97989	789.75018	-1234.4004	178.28883	706.20013	-1220.6281	336.8913	709.60504	-1384.8843				275.21259	388.1181	-1359.6989	454.073	420.33939	-1184.7294	453.42743	415.31921	-1256.6415	218.745	386.10135	-933.11926	107.05029	343.89542	-866.77771	205.84154	174.64749	-926.03619	291.98636	64.216682	-998.99884	311.46896	55.731945	-1069.8524	159.28836	38.736057	-966.83325	339.93115	383.90451	-1424.4016	91.216522	321.36182	-1564.8013	124.06006	249.40895	-1550.6667	288.05026	69.129341	-1434.6224	314.87949	57.794636	-1362.7609	161.79239	39.705837	-1462.2118
932	4.655	323.0968	789.67291	-1234.4196	178.41121	706.03033	-1220.6614	336.94641	709.49249	-1384.8678				275.41873	388.07785	-1359.6602	454.33423	420.15533	-1184.5875	453.61972	414.99246	-1256.6252	219.11954	386.09528	-933.07123	107.37516	344.02441	-866.71045	205.96884	174.66582	-926.01532	292.03702	64.161362	-998.97021	311.5383	55.775196	-1069.8445	159.30099	38.792812	-966.7821	340.14102	383.83389	-1424.3281	91.393326	321.54929	-1564.7371	124.16694	249.57224	-1550.6145	288.07288	69.174644	-1434.5809	314.86102	57.859131	-1362.6952	161.79866	39.754478	-1462.2023
933	4.66	323.1955	789.55347	-1234.4342	178.55136	705.91718	-1220.7959	336.98599	709.34631	-1384.8588				275.67471	387.91196	-1359.6562	454.60342	419.9473	-1184.5969	453.88562	414.74072	-1256.6829	219.49217	386.17227	-932.91577	107.66174	344.12671	-866.63959	206.08473	174.70895	-925.97552	292.08932	64.083694	-998.88989	311.57074	55.763092	-1069.8392	159.32886	38.832111	-966.80316	340.3924	383.69824	-1424.287	91.539581	321.66766	-1564.675	124.30796	249.68327	-1550.5696	288.08173	69.180458	-1434.584	314.7865	57.761234	-1362.6224	161.80205	39.760513	-1462.2047
934	4.665	323.28293	789.35071	-1234.4547	178.68648	705.75385	-1220.8962	337.10077	709.18646	-1384.8602				275.84186	387.87848	-1359.66	454.88553	419.63126	-1184.7432	454.20654	414.71341	-1256.7115	219.88358	386.29688	-932.73755	107.94332	344.29315	-866.55585	206.18883	174.76265	-925.91412	292.08157	64.059776	-998.91553	311.65631	55.692677	-1069.8895	159.36218	38.758392	-966.79346	340.65427	383.50366	-1424.23	91.704071	321.67383	-1564.611	124.40467	249.70529	-1550.4968	288.10437	69.06234	-1434.5695	314.93976	57.649502	-1362.7914	161.81213	39.661392	-1462.1803
